<?xml version="1.0" encoding="UTF-8" standalone="no"?>
<!DOCTYPE svg PUBLIC "-//W3C//DTD SVG 1.1//EN"
 "http://www.w3.org/Graphics/SVG/1.1/DTD/svg11.dtd">
<!-- Generated by graphviz version 2.38.0 (20140413.2041)
 -->
<!-- Title: RandAnything&lt; std::string &gt;::alphabet_alphaNumeric Pages: 1 -->
<svg width="372pt" height="137pt"
 viewBox="0.00 0.00 372.00 137.00" xmlns="http://www.w3.org/2000/svg" xmlns:xlink="http://www.w3.org/1999/xlink">
<g id="graph0" class="graph" transform="scale(1 1) rotate(0) translate(4 133)">
<title>RandAnything&lt; std::string &gt;::alphabet_alphaNumeric</title>
<polygon fill="white" stroke="none" points="-4,4 -4,-133 368,-133 368,4 -4,4"/>
<!-- Node1 -->
<g id="node1" class="node"><title>Node1</title>
<polygon fill="#bfbfbf" stroke="black" points="0,-49.5 0,-79.5 158,-79.5 158,-49.5 0,-49.5"/>
<text text-anchor="start" x="8" y="-67.5" font-family="Helvetica,sans-Serif" font-size="10.00">RandAnything&lt; std::</text>
<text text-anchor="middle" x="79" y="-56.5" font-family="Helvetica,sans-Serif" font-size="10.00">string &gt;::alphabet_alphaNumeric</text>
</g>
<!-- Node2 -->
<g id="node2" class="node"><title>Node2</title>
<g id="a_node2"><a xlink:href="classRandAnything_3_01std_1_1string_01_4.html#af6af2636887a7c198097a6e14008df98" target="_top" xlink:title="generates the alphabet of all lowercase alphabetical characters ">
<polygon fill="white" stroke="black" points="194,-98.5 194,-128.5 364,-128.5 364,-98.5 194,-98.5"/>
<text text-anchor="start" x="202" y="-116.5" font-family="Helvetica,sans-Serif" font-size="10.00">RandAnything&lt; std::</text>
<text text-anchor="middle" x="279" y="-105.5" font-family="Helvetica,sans-Serif" font-size="10.00">string &gt;::alphabet_alphaLowerCase</text>
</a>
</g>
</g>
<!-- Node1&#45;&gt;Node2 -->
<g id="edge1" class="edge"><title>Node1&#45;&gt;Node2</title>
<path fill="none" stroke="midnightblue" d="M140.752,-79.5346C161.848,-84.7554 185.682,-90.6537 207.498,-96.0526"/>
<polygon fill="midnightblue" stroke="midnightblue" points="206.815,-99.489 217.363,-98.4938 208.496,-92.694 206.815,-99.489"/>
</g>
<!-- Node3 -->
<g id="node3" class="node"><title>Node3</title>
<g id="a_node3"><a xlink:href="classRandAnything_3_01std_1_1string_01_4.html#a0c30e213ae36839933ff69f53ad89668" target="_top" xlink:title="generates the alphabet of all uppercase alphabetical characters ">
<polygon fill="white" stroke="black" points="194,-49.5 194,-79.5 364,-79.5 364,-49.5 194,-49.5"/>
<text text-anchor="start" x="202" y="-67.5" font-family="Helvetica,sans-Serif" font-size="10.00">RandAnything&lt; std::</text>
<text text-anchor="middle" x="279" y="-56.5" font-family="Helvetica,sans-Serif" font-size="10.00">string &gt;::alphabet_alphaUpperCase</text>
</a>
</g>
</g>
<!-- Node1&#45;&gt;Node3 -->
<g id="edge2" class="edge"><title>Node1&#45;&gt;Node3</title>
<path fill="none" stroke="midnightblue" d="M158.255,-64.5C166.646,-64.5 175.245,-64.5 183.796,-64.5"/>
<polygon fill="midnightblue" stroke="midnightblue" points="183.797,-68.0001 193.797,-64.5 183.797,-61.0001 183.797,-68.0001"/>
</g>
<!-- Node4 -->
<g id="node4" class="node"><title>Node4</title>
<g id="a_node4"><a xlink:href="classRandAnything_3_01std_1_1string_01_4.html#a0035c9b6236e2119e6a53b94a81f46f0" target="_top" xlink:title="generates the alphabet of all numeric characters ">
<polygon fill="white" stroke="black" points="213,-0.5 213,-30.5 345,-30.5 345,-0.5 213,-0.5"/>
<text text-anchor="start" x="221" y="-18.5" font-family="Helvetica,sans-Serif" font-size="10.00">RandAnything&lt; std::</text>
<text text-anchor="middle" x="279" y="-7.5" font-family="Helvetica,sans-Serif" font-size="10.00">string &gt;::alphabet_numeric</text>
</a>
</g>
</g>
<!-- Node1&#45;&gt;Node4 -->
<g id="edge3" class="edge"><title>Node1&#45;&gt;Node4</title>
<path fill="none" stroke="midnightblue" d="M140.752,-49.4654C161.848,-44.2446 185.682,-38.3463 207.498,-32.9474"/>
<polygon fill="midnightblue" stroke="midnightblue" points="208.496,-36.306 217.363,-30.5062 206.815,-29.511 208.496,-36.306"/>
</g>
</g>
</svg>
