<?xml version="1.0" encoding="UTF-8" standalone="no"?>
<!DOCTYPE svg PUBLIC "-//W3C//DTD SVG 1.1//EN"
 "http://www.w3.org/Graphics/SVG/1.1/DTD/svg11.dtd">
<!-- Generated by graphviz version 2.38.0 (20140413.2041)
 -->
<!-- Title: RandAnything&lt; std::string &gt;::alphabet_hexadecimal Pages: 1 -->
<svg width="328pt" height="39pt"
 viewBox="0.00 0.00 328.00 39.00" xmlns="http://www.w3.org/2000/svg" xmlns:xlink="http://www.w3.org/1999/xlink">
<g id="graph0" class="graph" transform="scale(1 1) rotate(0) translate(4 35)">
<title>RandAnything&lt; std::string &gt;::alphabet_hexadecimal</title>
<polygon fill="white" stroke="none" points="-4,4 -4,-35 324,-35 324,4 -4,4"/>
<!-- Node1 -->
<g id="node1" class="node"><title>Node1</title>
<polygon fill="#bfbfbf" stroke="black" points="0,-0.5 0,-30.5 152,-30.5 152,-0.5 0,-0.5"/>
<text text-anchor="start" x="8" y="-18.5" font-family="Helvetica,sans-Serif" font-size="10.00">RandAnything&lt; std::</text>
<text text-anchor="middle" x="76" y="-7.5" font-family="Helvetica,sans-Serif" font-size="10.00">string &gt;::alphabet_hexadecimal</text>
</g>
<!-- Node2 -->
<g id="node2" class="node"><title>Node2</title>
<g id="a_node2"><a xlink:href="classRandAnything_3_01std_1_1string_01_4.html#a0035c9b6236e2119e6a53b94a81f46f0" target="_top" xlink:title="generates the alphabet of all numeric characters ">
<polygon fill="white" stroke="black" points="188,-0.5 188,-30.5 320,-30.5 320,-0.5 188,-0.5"/>
<text text-anchor="start" x="196" y="-18.5" font-family="Helvetica,sans-Serif" font-size="10.00">RandAnything&lt; std::</text>
<text text-anchor="middle" x="254" y="-7.5" font-family="Helvetica,sans-Serif" font-size="10.00">string &gt;::alphabet_numeric</text>
</a>
</g>
</g>
<!-- Node1&#45;&gt;Node2 -->
<g id="edge1" class="edge"><title>Node1&#45;&gt;Node2</title>
<path fill="none" stroke="midnightblue" d="M152.15,-15.5C160.586,-15.5 169.183,-15.5 177.621,-15.5"/>
<polygon fill="midnightblue" stroke="midnightblue" points="177.815,-19.0001 187.815,-15.5 177.815,-12.0001 177.815,-19.0001"/>
</g>
</g>
</svg>
