<?xml version="1.0" encoding="UTF-8" standalone="no"?>
<!DOCTYPE svg PUBLIC "-//W3C//DTD SVG 1.1//EN"
 "http://www.w3.org/Graphics/SVG/1.1/DTD/svg11.dtd">
<!-- Generated by graphviz version 2.38.0 (20140413.2041)
 -->
<!-- Title: RandAnything&lt; std::string &gt;::operator() Pages: 1 -->
<svg width="491pt" height="186pt"
 viewBox="0.00 0.00 491.00 186.00" xmlns="http://www.w3.org/2000/svg" xmlns:xlink="http://www.w3.org/1999/xlink">
<g id="graph0" class="graph" transform="scale(1 1) rotate(0) translate(4 182)">
<title>RandAnything&lt; std::string &gt;::operator()</title>
<polygon fill="white" stroke="none" points="-4,4 -4,-182 487,-182 487,4 -4,4"/>
<!-- Node1 -->
<g id="node1" class="node"><title>Node1</title>
<polygon fill="#bfbfbf" stroke="black" points="0,-73.5 0,-103.5 107,-103.5 107,-73.5 0,-73.5"/>
<text text-anchor="start" x="8" y="-91.5" font-family="Helvetica,sans-Serif" font-size="10.00">RandAnything&lt; std::</text>
<text text-anchor="middle" x="53.5" y="-80.5" font-family="Helvetica,sans-Serif" font-size="10.00">string &gt;::operator()</text>
</g>
<!-- Node2 -->
<g id="node2" class="node"><title>Node2</title>
<g id="a_node2"><a xlink:href="classRandAnything_3_01std_1_1string_01_4.html#afd0ea23c81a2f087dbac78aacb7c9a51" target="_top" xlink:title="generates the alphabet of all printable (non&#45;whitespace) characters ">
<polygon fill="white" stroke="black" points="143,-73.5 143,-103.5 277,-103.5 277,-73.5 143,-73.5"/>
<text text-anchor="start" x="151" y="-91.5" font-family="Helvetica,sans-Serif" font-size="10.00">RandAnything&lt; std::</text>
<text text-anchor="middle" x="210" y="-80.5" font-family="Helvetica,sans-Serif" font-size="10.00">string &gt;::alphabet_printable</text>
</a>
</g>
</g>
<!-- Node1&#45;&gt;Node2 -->
<g id="edge1" class="edge"><title>Node1&#45;&gt;Node2</title>
<path fill="none" stroke="midnightblue" d="M107.238,-88.5C115.469,-88.5 124.114,-88.5 132.742,-88.5"/>
<polygon fill="midnightblue" stroke="midnightblue" points="132.838,-92.0001 142.838,-88.5 132.838,-85.0001 132.838,-92.0001"/>
</g>
<!-- Node3 -->
<g id="node3" class="node"><title>Node3</title>
<g id="a_node3"><a xlink:href="classRandAnything_3_01std_1_1string_01_4.html#af6af2636887a7c198097a6e14008df98" target="_top" xlink:title="generates the alphabet of all lowercase alphabetical characters ">
<polygon fill="white" stroke="black" points="313,-147.5 313,-177.5 483,-177.5 483,-147.5 313,-147.5"/>
<text text-anchor="start" x="321" y="-165.5" font-family="Helvetica,sans-Serif" font-size="10.00">RandAnything&lt; std::</text>
<text text-anchor="middle" x="398" y="-154.5" font-family="Helvetica,sans-Serif" font-size="10.00">string &gt;::alphabet_alphaLowerCase</text>
</a>
</g>
</g>
<!-- Node2&#45;&gt;Node3 -->
<g id="edge2" class="edge"><title>Node2&#45;&gt;Node3</title>
<path fill="none" stroke="midnightblue" d="M238.544,-103.663C258.738,-114.367 287.045,-128.521 313,-138.5 318.351,-140.557 323.953,-142.53 329.615,-144.399"/>
<polygon fill="midnightblue" stroke="midnightblue" points="328.576,-147.741 339.167,-147.441 330.701,-141.071 328.576,-147.741"/>
</g>
<!-- Node4 -->
<g id="node4" class="node"><title>Node4</title>
<g id="a_node4"><a xlink:href="classRandAnything_3_01std_1_1string_01_4.html#a0c30e213ae36839933ff69f53ad89668" target="_top" xlink:title="generates the alphabet of all uppercase alphabetical characters ">
<polygon fill="white" stroke="black" points="313,-98.5 313,-128.5 483,-128.5 483,-98.5 313,-98.5"/>
<text text-anchor="start" x="321" y="-116.5" font-family="Helvetica,sans-Serif" font-size="10.00">RandAnything&lt; std::</text>
<text text-anchor="middle" x="398" y="-105.5" font-family="Helvetica,sans-Serif" font-size="10.00">string &gt;::alphabet_alphaUpperCase</text>
</a>
</g>
</g>
<!-- Node2&#45;&gt;Node4 -->
<g id="edge3" class="edge"><title>Node2&#45;&gt;Node4</title>
<path fill="none" stroke="midnightblue" d="M277.1,-97.3845C285.431,-98.5042 294.077,-99.6662 302.737,-100.83"/>
<polygon fill="midnightblue" stroke="midnightblue" points="302.515,-104.332 312.892,-102.195 303.447,-97.3941 302.515,-104.332"/>
</g>
<!-- Node5 -->
<g id="node5" class="node"><title>Node5</title>
<g id="a_node5"><a xlink:href="classRandAnything_3_01std_1_1string_01_4.html#a0035c9b6236e2119e6a53b94a81f46f0" target="_top" xlink:title="generates the alphabet of all numeric characters ">
<polygon fill="white" stroke="black" points="332,-49.5 332,-79.5 464,-79.5 464,-49.5 332,-49.5"/>
<text text-anchor="start" x="340" y="-67.5" font-family="Helvetica,sans-Serif" font-size="10.00">RandAnything&lt; std::</text>
<text text-anchor="middle" x="398" y="-56.5" font-family="Helvetica,sans-Serif" font-size="10.00">string &gt;::alphabet_numeric</text>
</a>
</g>
</g>
<!-- Node2&#45;&gt;Node5 -->
<g id="edge4" class="edge"><title>Node2&#45;&gt;Node5</title>
<path fill="none" stroke="midnightblue" d="M277.1,-79.9709C291.523,-78.1099 306.89,-76.1271 321.642,-74.2236"/>
<polygon fill="midnightblue" stroke="midnightblue" points="322.268,-77.6719 331.738,-72.9209 321.372,-70.7295 322.268,-77.6719"/>
</g>
<!-- Node6 -->
<g id="node6" class="node"><title>Node6</title>
<g id="a_node6"><a xlink:href="classRandAnything_3_01std_1_1string_01_4.html#ad71cfbf34c787bc8f15f7efa2dc69dc7" target="_top" xlink:title="generates the alphabet of all punctuation and symbol characters (all non&#45;whitespace printable charact...">
<polygon fill="white" stroke="black" points="324,-0.5 324,-30.5 472,-30.5 472,-0.5 324,-0.5"/>
<text text-anchor="start" x="332" y="-18.5" font-family="Helvetica,sans-Serif" font-size="10.00">RandAnything&lt; std::</text>
<text text-anchor="middle" x="398" y="-7.5" font-family="Helvetica,sans-Serif" font-size="10.00">string &gt;::alphabet_punctuation</text>
</a>
</g>
</g>
<!-- Node2&#45;&gt;Node6 -->
<g id="edge5" class="edge"><title>Node2&#45;&gt;Node6</title>
<path fill="none" stroke="midnightblue" d="M239.952,-73.4444C260.098,-63.3253 287.767,-50.1294 313,-40.5 319.208,-38.1309 325.743,-35.8425 332.312,-33.6763"/>
<polygon fill="midnightblue" stroke="midnightblue" points="333.472,-36.9798 341.927,-30.5947 331.336,-30.3138 333.472,-36.9798"/>
</g>
</g>
</svg>
