<?xml version="1.0" encoding="UTF-8" standalone="no"?>
<!DOCTYPE svg PUBLIC "-//W3C//DTD SVG 1.1//EN"
 "http://www.w3.org/Graphics/SVG/1.1/DTD/svg11.dtd">
<!-- Generated by graphviz version 2.38.0 (20140413.2041)
 -->
<!-- Title: RandAnything&lt; std::string &gt;::alphabet_numeric Pages: 1 -->
<!--zoomable 137 -->
<svg id="main" version="1.1" xmlns="http://www.w3.org/2000/svg" xmlns:xlink="http://www.w3.org/1999/xlink" xml:space="preserve" onload="init(evt)">
<style type="text/css"><![CDATA[
.edge:hover path { stroke: red; }
.edge:hover polygon { stroke: red; fill: red; }
]]></style>
<script type="text/javascript"><![CDATA[
var edges = document.getElementsByTagName('g');
if (edges && edges.length) {
  for (var i=0;i<edges.length;i++) {
    if (edges[i].id.substr(0,4)=='edge') {
      edges[i].setAttribute('class','edge');
    }
  }
}
]]></script>
        <defs>
                <circle id="rim" cx="0" cy="0" r="7"/>
                <circle id="rim2" cx="0" cy="0" r="3.5"/>
                <g id="zoomPlus">
                        <use xlink:href="#rim" fill="#404040">
                                <set attributeName="fill" to="#808080" begin="zoomplus.mouseover" end="zoomplus.mouseout"/>
                        </use>
                        <path d="M-4,0h8M0,-4v8" fill="none" stroke="white" stroke-width="1.5" pointer-events="none"/>
                </g>
                <g id="zoomMin">
                        <use xlink:href="#rim" fill="#404040">
                                <set attributeName="fill" to="#808080" begin="zoomminus.mouseover" end="zoomminus.mouseout"/>
                        </use>
                        <path d="M-4,0h8" fill="none" stroke="white" stroke-width="1.5" pointer-events="none"/>
                </g>
                <g id="dirArrow">
                        <path fill="none" stroke="white" stroke-width="1.5" d="M0,-3.0v7 M-2.5,-0.5L0,-3.0L2.5,-0.5"/>
                </g>
               <g id="resetDef">
                       <use xlink:href="#rim2" fill="#404040">
                               <set attributeName="fill" to="#808080" begin="reset.mouseover" end="reset.mouseout"/>
                       </use>
               </g>
        </defs>

<script type="text/javascript">
var viewWidth = 620;
var viewHeight = 137;
var sectionId = 'dynsection-7';
</script>
<script xlink:href="svgpan.js"/>
<svg id="graph" class="graph">
<g id="viewport">
<title>RandAnything&lt; std::string &gt;::alphabet_numeric</title>
<polygon fill="white" stroke="none" points="-4,4 -4,-133 616,-133 616,4 -4,4"/>
<!-- Node1 -->
<g id="node1" class="node"><title>Node1</title>
<polygon fill="#bfbfbf" stroke="black" points="0,-49.5 0,-79.5 132,-79.5 132,-49.5 0,-49.5"/>
<text text-anchor="start" x="8" y="-67.5" font-family="Helvetica,sans-Serif" font-size="10.00">RandAnything&lt; std::</text>
<text text-anchor="middle" x="66" y="-56.5" font-family="Helvetica,sans-Serif" font-size="10.00">string &gt;::alphabet_numeric</text>
</g>
<!-- Node2 -->
<g id="node2" class="node"><title>Node2</title>
<g id="a_node2"><a xlink:href="classRandAnything_3_01std_1_1string_01_4.html#aed139969d898b4e09e602fdd46287a3f" target="_top" xlink:title="generates the alphabet of all alphabetical (upper&#45; and lower&#45;case) and numeric digits ...">
<polygon fill="white" stroke="black" points="168,-98.5 168,-128.5 326,-128.5 326,-98.5 168,-98.5"/>
<text text-anchor="start" x="176" y="-116.5" font-family="Helvetica,sans-Serif" font-size="10.00">RandAnything&lt; std::</text>
<text text-anchor="middle" x="247" y="-105.5" font-family="Helvetica,sans-Serif" font-size="10.00">string &gt;::alphabet_alphaNumeric</text>
</a>
</g>
</g>
<!-- Node1&#45;&gt;Node2 -->
<g id="edge1" class="edge"><title>Node1&#45;&gt;Node2</title>
<path fill="none" stroke="midnightblue" d="M131.836,-82.2485C151.236,-87.5591 172.313,-93.3288 191.016,-98.4484"/>
<polygon fill="midnightblue" stroke="midnightblue" points="132.736,-78.866 122.166,-79.6014 130.888,-85.6176 132.736,-78.866"/>
</g>
<!-- Node3 -->
<g id="node3" class="node"><title>Node3</title>
<g id="a_node3"><a xlink:href="classRandAnything_3_01std_1_1string_01_4.html#afd0ea23c81a2f087dbac78aacb7c9a51" target="_top" xlink:title="generates the alphabet of all printable (non&#45;whitespace) characters ">
<polygon fill="white" stroke="black" points="180,-49.5 180,-79.5 314,-79.5 314,-49.5 180,-49.5"/>
<text text-anchor="start" x="188" y="-67.5" font-family="Helvetica,sans-Serif" font-size="10.00">RandAnything&lt; std::</text>
<text text-anchor="middle" x="247" y="-56.5" font-family="Helvetica,sans-Serif" font-size="10.00">string &gt;::alphabet_printable</text>
</a>
</g>
</g>
<!-- Node1&#45;&gt;Node3 -->
<g id="edge2" class="edge"><title>Node1&#45;&gt;Node3</title>
<path fill="none" stroke="midnightblue" d="M142.427,-64.5C154.816,-64.5 167.573,-64.5 179.718,-64.5"/>
<polygon fill="midnightblue" stroke="midnightblue" points="142.13,-61.0001 132.129,-64.5 142.129,-68.0001 142.13,-61.0001"/>
</g>
<!-- Node6 -->
<g id="node6" class="node"><title>Node6</title>
<g id="a_node6"><a xlink:href="classRandAnything_3_01std_1_1string_01_4.html#a717d93a982f688f62d538969fa01a759" target="_top" xlink:title="generates the alphabet of all hexadecimal digits [0,f] ">
<polygon fill="white" stroke="black" points="171,-0.5 171,-30.5 323,-30.5 323,-0.5 171,-0.5"/>
<text text-anchor="start" x="179" y="-18.5" font-family="Helvetica,sans-Serif" font-size="10.00">RandAnything&lt; std::</text>
<text text-anchor="middle" x="247" y="-7.5" font-family="Helvetica,sans-Serif" font-size="10.00">string &gt;::alphabet_hexadecimal</text>
</a>
</g>
</g>
<!-- Node1&#45;&gt;Node6 -->
<g id="edge5" class="edge"><title>Node1&#45;&gt;Node6</title>
<path fill="none" stroke="midnightblue" d="M131.836,-46.7515C151.236,-41.4409 172.313,-35.6712 191.016,-30.5516"/>
<polygon fill="midnightblue" stroke="midnightblue" points="130.888,-43.3824 122.166,-49.3986 132.736,-50.134 130.888,-43.3824"/>
</g>
<!-- Node4 -->
<g id="node4" class="node"><title>Node4</title>
<g id="a_node4"><a xlink:href="classRandAnything_3_01std_1_1string_01_4.html#a751699899de4d1ac733ef994564c9c95" target="_top" xlink:title="generate a random std::string in a range of lengths from a chosen alphabet ">
<polygon fill="white" stroke="black" points="362,-49.5 362,-79.5 469,-79.5 469,-49.5 362,-49.5"/>
<text text-anchor="start" x="370" y="-67.5" font-family="Helvetica,sans-Serif" font-size="10.00">RandAnything&lt; std::</text>
<text text-anchor="middle" x="415.5" y="-56.5" font-family="Helvetica,sans-Serif" font-size="10.00">string &gt;::operator()</text>
</a>
</g>
</g>
<!-- Node3&#45;&gt;Node4 -->
<g id="edge3" class="edge"><title>Node3&#45;&gt;Node4</title>
<path fill="none" stroke="midnightblue" d="M324.36,-64.5C337.009,-64.5 349.872,-64.5 361.77,-64.5"/>
<polygon fill="midnightblue" stroke="midnightblue" points="324.284,-61.0001 314.284,-64.5 324.284,-68.0001 324.284,-61.0001"/>
</g>
<!-- Node5 -->
<g id="node5" class="node"><title>Node5</title>
<g id="a_node5"><a xlink:href="classRandAnything_3_01std_1_1string_01_4.html#ae35ce7020cda4ea628336a9e36b69223" target="_top" xlink:title="generate a random std::string of a specific length from a chosen alphabet ">
<polygon fill="white" stroke="black" points="505,-49.5 505,-79.5 612,-79.5 612,-49.5 505,-49.5"/>
<text text-anchor="start" x="513" y="-67.5" font-family="Helvetica,sans-Serif" font-size="10.00">RandAnything&lt; std::</text>
<text text-anchor="middle" x="558.5" y="-56.5" font-family="Helvetica,sans-Serif" font-size="10.00">string &gt;::operator()</text>
</a>
</g>
</g>
<!-- Node4&#45;&gt;Node5 -->
<g id="edge4" class="edge"><title>Node4&#45;&gt;Node5</title>
<path fill="none" stroke="midnightblue" d="M479.05,-64.5C487.7,-64.5 496.51,-64.5 504.953,-64.5"/>
<polygon fill="midnightblue" stroke="midnightblue" points="479.003,-61.0001 469.003,-64.5 479.003,-68.0001 479.003,-61.0001"/>
</g>
</g>
</svg>
        <g id="navigator" transform="translate(0 0)" fill="#404254">
                <rect fill="#f2f5e9" fill-opacity="0.5" stroke="#606060" stroke-width=".5" x="0" y="0" width="60" height="60"/>
                <use id="zoomplus" xlink:href="#zoomPlus" x="17" y="9" onmousedown="handleZoom(evt,'in')"/>
                <use id="zoomminus" xlink:href="#zoomMin" x="42" y="9" onmousedown="handleZoom(evt,'out')"/>
                <use id="reset" xlink:href="#resetDef" x="30" y="36" onmousedown="handleReset()"/>
                <g id="arrowUp" xlink:href="#dirArrow" transform="translate(30 24)" onmousedown="handlePan(0,-1)">
                  <use xlink:href="#rim" fill="#404040">
                        <set attributeName="fill" to="#808080" begin="arrowUp.mouseover" end="arrowUp.mouseout"/>
                  </use>
                  <path fill="none" stroke="white" stroke-width="1.5" d="M0,-3.0v7 M-2.5,-0.5L0,-3.0L2.5,-0.5"/>
                </g>
                <g id="arrowRight" xlink:href="#dirArrow" transform="rotate(90) translate(36 -43)" onmousedown="handlePan(1,0)">
                  <use xlink:href="#rim" fill="#404040">
                        <set attributeName="fill" to="#808080" begin="arrowRight.mouseover" end="arrowRight.mouseout"/>
                  </use>
                  <path fill="none" stroke="white" stroke-width="1.5" d="M0,-3.0v7 M-2.5,-0.5L0,-3.0L2.5,-0.5"/>
                </g>
                <g id="arrowDown" xlink:href="#dirArrow" transform="rotate(180) translate(-30 -48)" onmousedown="handlePan(0,1)">
                  <use xlink:href="#rim" fill="#404040">
                        <set attributeName="fill" to="#808080" begin="arrowDown.mouseover" end="arrowDown.mouseout"/>
                  </use>
                  <path fill="none" stroke="white" stroke-width="1.5" d="M0,-3.0v7 M-2.5,-0.5L0,-3.0L2.5,-0.5"/>
                </g>
                <g id="arrowLeft" xlink:href="#dirArrow" transform="rotate(270) translate(-36 17)" onmousedown="handlePan(-1,0)">
                  <use xlink:href="#rim" fill="#404040">
                        <set attributeName="fill" to="#808080" begin="arrowLeft.mouseover" end="arrowLeft.mouseout"/>
                  </use>
                  <path fill="none" stroke="white" stroke-width="1.5" d="M0,-3.0v7 M-2.5,-0.5L0,-3.0L2.5,-0.5"/>
                </g>
        </g>
        <svg viewBox="0 0 15 15" width="100%" height="30px" preserveAspectRatio="xMaxYMin meet">
         <g id="arrow_out" transform="scale(0.3 0.3)">
          <a xlink:href="classRandAnything_3_01std_1_1string_01_4_a0035c9b6236e2119e6a53b94a81f46f0_icgraph_org.svg" target="_base">
           <rect id="button" ry="5" rx="5" y="6" x="6" height="38" width="38"
                fill="#f2f5e9" fill-opacity="0.5" stroke="#606060" stroke-width="1.0"/>
           <path id="arrow"
             d="M 11.500037,31.436501 C 11.940474,20.09759 22.043105,11.32322 32.158766,21.979434 L 37.068811,17.246167 C 37.068811,17.246167 37.088388,32 37.088388,32 L 22.160133,31.978069 C 22.160133,31.978069 26.997745,27.140456 26.997745,27.140456 C 18.528582,18.264221 13.291696,25.230495 11.500037,31.436501 z"
             style="fill:#404040;"/>
          </a>
         </g>
        </svg>
</svg>
