<?xml version="1.0" encoding="UTF-8" standalone="no"?>
<!DOCTYPE svg PUBLIC "-//W3C//DTD SVG 1.1//EN"
 "http://www.w3.org/Graphics/SVG/1.1/DTD/svg11.dtd">
<!-- Generated by graphviz version 2.38.0 (20140413.2041)
 -->
<!-- Title: RandAnything&lt; ValueType &gt; Pages: 1 -->
<svg width="151pt" height="226pt"
 viewBox="0.00 0.00 151.00 226.00" xmlns="http://www.w3.org/2000/svg" xmlns:xlink="http://www.w3.org/1999/xlink">
<g id="graph0" class="graph" transform="scale(1 1) rotate(0) translate(4 222)">
<title>RandAnything&lt; ValueType &gt;</title>
<polygon fill="white" stroke="none" points="-4,4 -4,-222 147,-222 147,4 -4,4"/>
<!-- Node1 -->
<g id="node1" class="node"><title>Node1</title>
<polygon fill="#bfbfbf" stroke="black" points="0,-138.5 0,-217.5 143,-217.5 143,-138.5 0,-138.5"/>
<text text-anchor="middle" x="71.5" y="-205.5" font-family="Helvetica,sans-Serif" font-size="10.00">RandAnything&lt; ValueType &gt;</text>
<polyline fill="none" stroke="black" points="0,-198.5 143,-198.5 "/>
<text text-anchor="middle" x="71.5" y="-186.5" font-family="Helvetica,sans-Serif" font-size="10.00"> </text>
<polyline fill="none" stroke="black" points="0,-179.5 143,-179.5 "/>
<text text-anchor="start" x="8" y="-167.5" font-family="Helvetica,sans-Serif" font-size="10.00">+ RandAnything()</text>
<text text-anchor="start" x="8" y="-156.5" font-family="Helvetica,sans-Serif" font-size="10.00">+ RandAnything()</text>
<text text-anchor="start" x="8" y="-145.5" font-family="Helvetica,sans-Serif" font-size="10.00">+ operator()()</text>
</g>
<!-- Node2 -->
<g id="node2" class="node"><title>Node2</title>
<g id="a_node2"><a xlink:href="classRandAnything.html" target="_top" xlink:title="{RandAnything\&lt; std::\lsize_t \&gt;\n||+ RandAnything()\l+ RandAnything()\l+ operator()()\l}">
<polygon fill="white" stroke="black" points="18,-0.5 18,-90.5 125,-90.5 125,-0.5 18,-0.5"/>
<text text-anchor="start" x="26" y="-78.5" font-family="Helvetica,sans-Serif" font-size="10.00">RandAnything&lt; std::</text>
<text text-anchor="middle" x="71.5" y="-67.5" font-family="Helvetica,sans-Serif" font-size="10.00">size_t &gt;</text>
<polyline fill="none" stroke="black" points="18,-60.5 125,-60.5 "/>
<text text-anchor="middle" x="71.5" y="-48.5" font-family="Helvetica,sans-Serif" font-size="10.00"> </text>
<polyline fill="none" stroke="black" points="18,-41.5 125,-41.5 "/>
<text text-anchor="start" x="26" y="-29.5" font-family="Helvetica,sans-Serif" font-size="10.00">+ RandAnything()</text>
<text text-anchor="start" x="26" y="-18.5" font-family="Helvetica,sans-Serif" font-size="10.00">+ RandAnything()</text>
<text text-anchor="start" x="26" y="-7.5" font-family="Helvetica,sans-Serif" font-size="10.00">+ operator()()</text>
</a>
</g>
</g>
<!-- Node1&#45;&gt;Node2 -->
<g id="edge1" class="edge"><title>Node1&#45;&gt;Node2</title>
<path fill="none" stroke="orange" d="M71.5,-128.161C71.5,-115.931 71.5,-102.879 71.5,-90.8791"/>
<polygon fill="orange" stroke="orange" points="68.0001,-128.199 71.5,-138.199 75.0001,-128.199 68.0001,-128.199"/>
<text text-anchor="middle" x="105" y="-112" font-family="Helvetica,sans-Serif" font-size="10.00"> &lt; std::size_t &gt;</text>
</g>
</g>
</svg>
