<?xml version="1.0" encoding="UTF-8" standalone="no"?>
<!DOCTYPE svg PUBLIC "-//W3C//DTD SVG 1.1//EN"
 "http://www.w3.org/Graphics/SVG/1.1/DTD/svg11.dtd">
<!-- Generated by graphviz version 2.38.0 (20140413.2041)
 -->
<!-- Title: RandAnything&lt; std::string &gt;::alphabet_alphaAllCase Pages: 1 -->
<svg width="369pt" height="88pt"
 viewBox="0.00 0.00 369.00 88.00" xmlns="http://www.w3.org/2000/svg" xmlns:xlink="http://www.w3.org/1999/xlink">
<g id="graph0" class="graph" transform="scale(1 1) rotate(0) translate(4 84)">
<title>RandAnything&lt; std::string &gt;::alphabet_alphaAllCase</title>
<polygon fill="white" stroke="none" points="-4,4 -4,-84 365,-84 365,4 -4,4"/>
<!-- Node1 -->
<g id="node1" class="node"><title>Node1</title>
<polygon fill="#bfbfbf" stroke="black" points="0,-24.5 0,-54.5 155,-54.5 155,-24.5 0,-24.5"/>
<text text-anchor="start" x="8" y="-42.5" font-family="Helvetica,sans-Serif" font-size="10.00">RandAnything&lt; std::</text>
<text text-anchor="middle" x="77.5" y="-31.5" font-family="Helvetica,sans-Serif" font-size="10.00">string &gt;::alphabet_alphaAllCase</text>
</g>
<!-- Node2 -->
<g id="node2" class="node"><title>Node2</title>
<g id="a_node2"><a xlink:href="classRandAnything_3_01std_1_1string_01_4.html#af6af2636887a7c198097a6e14008df98" target="_top" xlink:title="generates the alphabet of all lowercase alphabetical characters ">
<polygon fill="white" stroke="black" points="191,-49.5 191,-79.5 361,-79.5 361,-49.5 191,-49.5"/>
<text text-anchor="start" x="199" y="-67.5" font-family="Helvetica,sans-Serif" font-size="10.00">RandAnything&lt; std::</text>
<text text-anchor="middle" x="276" y="-56.5" font-family="Helvetica,sans-Serif" font-size="10.00">string &gt;::alphabet_alphaLowerCase</text>
</a>
</g>
</g>
<!-- Node1&#45;&gt;Node2 -->
<g id="edge1" class="edge"><title>Node1&#45;&gt;Node2</title>
<path fill="none" stroke="midnightblue" d="M155.035,-49.2372C163.477,-50.3113 172.145,-51.4141 180.771,-52.5116"/>
<polygon fill="midnightblue" stroke="midnightblue" points="180.501,-56.0053 190.862,-53.7955 181.384,-49.0613 180.501,-56.0053"/>
</g>
<!-- Node3 -->
<g id="node3" class="node"><title>Node3</title>
<g id="a_node3"><a xlink:href="classRandAnything_3_01std_1_1string_01_4.html#a0c30e213ae36839933ff69f53ad89668" target="_top" xlink:title="generates the alphabet of all uppercase alphabetical characters ">
<polygon fill="white" stroke="black" points="191,-0.5 191,-30.5 361,-30.5 361,-0.5 191,-0.5"/>
<text text-anchor="start" x="199" y="-18.5" font-family="Helvetica,sans-Serif" font-size="10.00">RandAnything&lt; std::</text>
<text text-anchor="middle" x="276" y="-7.5" font-family="Helvetica,sans-Serif" font-size="10.00">string &gt;::alphabet_alphaUpperCase</text>
</a>
</g>
</g>
<!-- Node1&#45;&gt;Node3 -->
<g id="edge2" class="edge"><title>Node1&#45;&gt;Node3</title>
<path fill="none" stroke="midnightblue" d="M155.035,-30.1523C163.477,-29.1211 172.145,-28.0625 180.771,-27.0089"/>
<polygon fill="midnightblue" stroke="midnightblue" points="181.361,-30.463 190.862,-25.7763 180.512,-23.5146 181.361,-30.463"/>
</g>
</g>
</svg>
