<?xml version="1.0" encoding="UTF-8" standalone="no"?>
<!DOCTYPE svg PUBLIC "-//W3C//DTD SVG 1.1//EN"
 "http://www.w3.org/Graphics/SVG/1.1/DTD/svg11.dtd">
<!-- Generated by graphviz version 2.38.0 (20140413.2041)
 -->
<!-- Title: RandAnything&lt; std::string &gt;::alphabet_alphaUpperCase Pages: 1 -->
<svg width="658pt" height="137pt"
 viewBox="0.00 0.00 658.00 137.00" xmlns="http://www.w3.org/2000/svg" xmlns:xlink="http://www.w3.org/1999/xlink">
<g id="graph0" class="graph" transform="scale(1 1) rotate(0) translate(4 133)">
<title>RandAnything&lt; std::string &gt;::alphabet_alphaUpperCase</title>
<polygon fill="white" stroke="none" points="-4,4 -4,-133 654,-133 654,4 -4,4"/>
<!-- Node1 -->
<g id="node1" class="node"><title>Node1</title>
<polygon fill="#bfbfbf" stroke="black" points="0,-49.5 0,-79.5 170,-79.5 170,-49.5 0,-49.5"/>
<text text-anchor="start" x="8" y="-67.5" font-family="Helvetica,sans-Serif" font-size="10.00">RandAnything&lt; std::</text>
<text text-anchor="middle" x="85" y="-56.5" font-family="Helvetica,sans-Serif" font-size="10.00">string &gt;::alphabet_alphaUpperCase</text>
</g>
<!-- Node2 -->
<g id="node2" class="node"><title>Node2</title>
<g id="a_node2"><a xlink:href="classRandAnything_3_01std_1_1string_01_4.html#a4b7934335000d938ea1ec3cadcd8c078" target="_top" xlink:title="generates the alphabet of all alphabetical characters (upper&#45; and lower&#45;case) ">
<polygon fill="white" stroke="black" points="207.5,-98.5 207.5,-128.5 362.5,-128.5 362.5,-98.5 207.5,-98.5"/>
<text text-anchor="start" x="215.5" y="-116.5" font-family="Helvetica,sans-Serif" font-size="10.00">RandAnything&lt; std::</text>
<text text-anchor="middle" x="285" y="-105.5" font-family="Helvetica,sans-Serif" font-size="10.00">string &gt;::alphabet_alphaAllCase</text>
</a>
</g>
</g>
<!-- Node1&#45;&gt;Node2 -->
<g id="edge1" class="edge"><title>Node1&#45;&gt;Node2</title>
<path fill="none" stroke="midnightblue" d="M156.621,-81.9768C178.444,-87.3775 202.277,-93.2755 223.363,-98.4938"/>
<polygon fill="midnightblue" stroke="midnightblue" points="157.3,-78.5395 146.752,-79.5346 155.618,-85.3345 157.3,-78.5395"/>
</g>
<!-- Node3 -->
<g id="node3" class="node"><title>Node3</title>
<g id="a_node3"><a xlink:href="classRandAnything_3_01std_1_1string_01_4.html#aed139969d898b4e09e602fdd46287a3f" target="_top" xlink:title="generates the alphabet of all alphabetical (upper&#45; and lower&#45;case) and numeric digits ...">
<polygon fill="white" stroke="black" points="206,-49.5 206,-79.5 364,-79.5 364,-49.5 206,-49.5"/>
<text text-anchor="start" x="214" y="-67.5" font-family="Helvetica,sans-Serif" font-size="10.00">RandAnything&lt; std::</text>
<text text-anchor="middle" x="285" y="-56.5" font-family="Helvetica,sans-Serif" font-size="10.00">string &gt;::alphabet_alphaNumeric</text>
</a>
</g>
</g>
<!-- Node1&#45;&gt;Node3 -->
<g id="edge2" class="edge"><title>Node1&#45;&gt;Node3</title>
<path fill="none" stroke="midnightblue" d="M180.535,-64.5C188.992,-64.5 197.493,-64.5 205.79,-64.5"/>
<polygon fill="midnightblue" stroke="midnightblue" points="180.257,-61.0001 170.257,-64.5 180.257,-68.0001 180.257,-61.0001"/>
</g>
<!-- Node4 -->
<g id="node4" class="node"><title>Node4</title>
<g id="a_node4"><a xlink:href="classRandAnything_3_01std_1_1string_01_4.html#afd0ea23c81a2f087dbac78aacb7c9a51" target="_top" xlink:title="generates the alphabet of all printable (non&#45;whitespace) characters ">
<polygon fill="white" stroke="black" points="218,-0.5 218,-30.5 352,-30.5 352,-0.5 218,-0.5"/>
<text text-anchor="start" x="226" y="-18.5" font-family="Helvetica,sans-Serif" font-size="10.00">RandAnything&lt; std::</text>
<text text-anchor="middle" x="285" y="-7.5" font-family="Helvetica,sans-Serif" font-size="10.00">string &gt;::alphabet_printable</text>
</a>
</g>
</g>
<!-- Node1&#45;&gt;Node4 -->
<g id="edge3" class="edge"><title>Node1&#45;&gt;Node4</title>
<path fill="none" stroke="midnightblue" d="M156.621,-47.0232C178.444,-41.6225 202.277,-35.7245 223.363,-30.5062"/>
<polygon fill="midnightblue" stroke="midnightblue" points="155.618,-43.6655 146.752,-49.4654 157.3,-50.4605 155.618,-43.6655"/>
</g>
<!-- Node5 -->
<g id="node5" class="node"><title>Node5</title>
<g id="a_node5"><a xlink:href="classRandAnything_3_01std_1_1string_01_4.html#a751699899de4d1ac733ef994564c9c95" target="_top" xlink:title="generate a random std::string in a range of lengths from a chosen alphabet ">
<polygon fill="white" stroke="black" points="400,-0.5 400,-30.5 507,-30.5 507,-0.5 400,-0.5"/>
<text text-anchor="start" x="408" y="-18.5" font-family="Helvetica,sans-Serif" font-size="10.00">RandAnything&lt; std::</text>
<text text-anchor="middle" x="453.5" y="-7.5" font-family="Helvetica,sans-Serif" font-size="10.00">string &gt;::operator()</text>
</a>
</g>
</g>
<!-- Node4&#45;&gt;Node5 -->
<g id="edge4" class="edge"><title>Node4&#45;&gt;Node5</title>
<path fill="none" stroke="midnightblue" d="M362.36,-15.5C375.009,-15.5 387.872,-15.5 399.77,-15.5"/>
<polygon fill="midnightblue" stroke="midnightblue" points="362.284,-12.0001 352.284,-15.5 362.284,-19.0001 362.284,-12.0001"/>
</g>
<!-- Node6 -->
<g id="node6" class="node"><title>Node6</title>
<g id="a_node6"><a xlink:href="classRandAnything_3_01std_1_1string_01_4.html#ae35ce7020cda4ea628336a9e36b69223" target="_top" xlink:title="generate a random std::string of a specific length from a chosen alphabet ">
<polygon fill="white" stroke="black" points="543,-0.5 543,-30.5 650,-30.5 650,-0.5 543,-0.5"/>
<text text-anchor="start" x="551" y="-18.5" font-family="Helvetica,sans-Serif" font-size="10.00">RandAnything&lt; std::</text>
<text text-anchor="middle" x="596.5" y="-7.5" font-family="Helvetica,sans-Serif" font-size="10.00">string &gt;::operator()</text>
</a>
</g>
</g>
<!-- Node5&#45;&gt;Node6 -->
<g id="edge5" class="edge"><title>Node5&#45;&gt;Node6</title>
<path fill="none" stroke="midnightblue" d="M517.05,-15.5C525.7,-15.5 534.51,-15.5 542.953,-15.5"/>
<polygon fill="midnightblue" stroke="midnightblue" points="517.003,-12.0001 507.003,-15.5 517.003,-19.0001 517.003,-12.0001"/>
</g>
</g>
</svg>
