<?xml version="1.0" encoding="UTF-8" standalone="no"?>
<!DOCTYPE svg PUBLIC "-//W3C//DTD SVG 1.1//EN"
 "http://www.w3.org/Graphics/SVG/1.1/DTD/svg11.dtd">
<!-- Generated by graphviz version 2.38.0 (20140413.2041)
 -->
<!-- Title: RandAnything&lt; std::string &gt;::alphabet_printable Pages: 1 -->
<svg width="348pt" height="186pt"
 viewBox="0.00 0.00 348.00 186.00" xmlns="http://www.w3.org/2000/svg" xmlns:xlink="http://www.w3.org/1999/xlink">
<g id="graph0" class="graph" transform="scale(1 1) rotate(0) translate(4 182)">
<title>RandAnything&lt; std::string &gt;::alphabet_printable</title>
<polygon fill="white" stroke="none" points="-4,4 -4,-182 344,-182 344,4 -4,4"/>
<!-- Node1 -->
<g id="node1" class="node"><title>Node1</title>
<polygon fill="#bfbfbf" stroke="black" points="0,-73.5 0,-103.5 134,-103.5 134,-73.5 0,-73.5"/>
<text text-anchor="start" x="8" y="-91.5" font-family="Helvetica,sans-Serif" font-size="10.00">RandAnything&lt; std::</text>
<text text-anchor="middle" x="67" y="-80.5" font-family="Helvetica,sans-Serif" font-size="10.00">string &gt;::alphabet_printable</text>
</g>
<!-- Node2 -->
<g id="node2" class="node"><title>Node2</title>
<g id="a_node2"><a xlink:href="classRandAnything_3_01std_1_1string_01_4.html#af6af2636887a7c198097a6e14008df98" target="_top" xlink:title="generates the alphabet of all lowercase alphabetical characters ">
<polygon fill="white" stroke="black" points="170,-147.5 170,-177.5 340,-177.5 340,-147.5 170,-147.5"/>
<text text-anchor="start" x="178" y="-165.5" font-family="Helvetica,sans-Serif" font-size="10.00">RandAnything&lt; std::</text>
<text text-anchor="middle" x="255" y="-154.5" font-family="Helvetica,sans-Serif" font-size="10.00">string &gt;::alphabet_alphaLowerCase</text>
</a>
</g>
</g>
<!-- Node1&#45;&gt;Node2 -->
<g id="edge1" class="edge"><title>Node1&#45;&gt;Node2</title>
<path fill="none" stroke="midnightblue" d="M95.5441,-103.663C115.738,-114.367 144.045,-128.521 170,-138.5 175.351,-140.557 180.953,-142.53 186.615,-144.399"/>
<polygon fill="midnightblue" stroke="midnightblue" points="185.576,-147.741 196.167,-147.441 187.701,-141.071 185.576,-147.741"/>
</g>
<!-- Node3 -->
<g id="node3" class="node"><title>Node3</title>
<g id="a_node3"><a xlink:href="classRandAnything_3_01std_1_1string_01_4.html#a0c30e213ae36839933ff69f53ad89668" target="_top" xlink:title="generates the alphabet of all uppercase alphabetical characters ">
<polygon fill="white" stroke="black" points="170,-98.5 170,-128.5 340,-128.5 340,-98.5 170,-98.5"/>
<text text-anchor="start" x="178" y="-116.5" font-family="Helvetica,sans-Serif" font-size="10.00">RandAnything&lt; std::</text>
<text text-anchor="middle" x="255" y="-105.5" font-family="Helvetica,sans-Serif" font-size="10.00">string &gt;::alphabet_alphaUpperCase</text>
</a>
</g>
</g>
<!-- Node1&#45;&gt;Node3 -->
<g id="edge2" class="edge"><title>Node1&#45;&gt;Node3</title>
<path fill="none" stroke="midnightblue" d="M134.1,-97.3845C142.431,-98.5042 151.077,-99.6662 159.737,-100.83"/>
<polygon fill="midnightblue" stroke="midnightblue" points="159.515,-104.332 169.892,-102.195 160.447,-97.3941 159.515,-104.332"/>
</g>
<!-- Node4 -->
<g id="node4" class="node"><title>Node4</title>
<g id="a_node4"><a xlink:href="classRandAnything_3_01std_1_1string_01_4.html#a0035c9b6236e2119e6a53b94a81f46f0" target="_top" xlink:title="generates the alphabet of all numeric characters ">
<polygon fill="white" stroke="black" points="189,-49.5 189,-79.5 321,-79.5 321,-49.5 189,-49.5"/>
<text text-anchor="start" x="197" y="-67.5" font-family="Helvetica,sans-Serif" font-size="10.00">RandAnything&lt; std::</text>
<text text-anchor="middle" x="255" y="-56.5" font-family="Helvetica,sans-Serif" font-size="10.00">string &gt;::alphabet_numeric</text>
</a>
</g>
</g>
<!-- Node1&#45;&gt;Node4 -->
<g id="edge3" class="edge"><title>Node1&#45;&gt;Node4</title>
<path fill="none" stroke="midnightblue" d="M134.1,-79.9709C148.523,-78.1099 163.89,-76.1271 178.642,-74.2236"/>
<polygon fill="midnightblue" stroke="midnightblue" points="179.268,-77.6719 188.738,-72.9209 178.372,-70.7295 179.268,-77.6719"/>
</g>
<!-- Node5 -->
<g id="node5" class="node"><title>Node5</title>
<g id="a_node5"><a xlink:href="classRandAnything_3_01std_1_1string_01_4.html#ad71cfbf34c787bc8f15f7efa2dc69dc7" target="_top" xlink:title="generates the alphabet of all punctuation and symbol characters (all non&#45;whitespace printable charact...">
<polygon fill="white" stroke="black" points="181,-0.5 181,-30.5 329,-30.5 329,-0.5 181,-0.5"/>
<text text-anchor="start" x="189" y="-18.5" font-family="Helvetica,sans-Serif" font-size="10.00">RandAnything&lt; std::</text>
<text text-anchor="middle" x="255" y="-7.5" font-family="Helvetica,sans-Serif" font-size="10.00">string &gt;::alphabet_punctuation</text>
</a>
</g>
</g>
<!-- Node1&#45;&gt;Node5 -->
<g id="edge4" class="edge"><title>Node1&#45;&gt;Node5</title>
<path fill="none" stroke="midnightblue" d="M96.9522,-73.4444C117.098,-63.3253 144.767,-50.1294 170,-40.5 176.208,-38.1309 182.743,-35.8425 189.312,-33.6763"/>
<polygon fill="midnightblue" stroke="midnightblue" points="190.472,-36.9798 198.927,-30.5947 188.336,-30.3138 190.472,-36.9798"/>
</g>
</g>
</svg>
