<?xml version="1.0" encoding="UTF-8" standalone="no"?>
<!DOCTYPE svg PUBLIC "-//W3C//DTD SVG 1.1//EN"
 "http://www.w3.org/Graphics/SVG/1.1/DTD/svg11.dtd">
<!-- Generated by graphviz version 2.38.0 (20140413.2041)
 -->
<!-- Title: RandAnything&lt; std::string &gt;::alphabet_punctuation Pages: 1 -->
<svg width="612pt" height="39pt"
 viewBox="0.00 0.00 612.00 39.00" xmlns="http://www.w3.org/2000/svg" xmlns:xlink="http://www.w3.org/1999/xlink">
<g id="graph0" class="graph" transform="scale(1 1) rotate(0) translate(4 35)">
<title>RandAnything&lt; std::string &gt;::alphabet_punctuation</title>
<polygon fill="white" stroke="none" points="-4,4 -4,-35 608,-35 608,4 -4,4"/>
<!-- Node1 -->
<g id="node1" class="node"><title>Node1</title>
<polygon fill="#bfbfbf" stroke="black" points="0,-0.5 0,-30.5 148,-30.5 148,-0.5 0,-0.5"/>
<text text-anchor="start" x="8" y="-18.5" font-family="Helvetica,sans-Serif" font-size="10.00">RandAnything&lt; std::</text>
<text text-anchor="middle" x="74" y="-7.5" font-family="Helvetica,sans-Serif" font-size="10.00">string &gt;::alphabet_punctuation</text>
</g>
<!-- Node2 -->
<g id="node2" class="node"><title>Node2</title>
<g id="a_node2"><a xlink:href="classRandAnything_3_01std_1_1string_01_4.html#afd0ea23c81a2f087dbac78aacb7c9a51" target="_top" xlink:title="generates the alphabet of all printable (non&#45;whitespace) characters ">
<polygon fill="white" stroke="black" points="184,-0.5 184,-30.5 318,-30.5 318,-0.5 184,-0.5"/>
<text text-anchor="start" x="192" y="-18.5" font-family="Helvetica,sans-Serif" font-size="10.00">RandAnything&lt; std::</text>
<text text-anchor="middle" x="251" y="-7.5" font-family="Helvetica,sans-Serif" font-size="10.00">string &gt;::alphabet_printable</text>
</a>
</g>
</g>
<!-- Node1&#45;&gt;Node2 -->
<g id="edge1" class="edge"><title>Node1&#45;&gt;Node2</title>
<path fill="none" stroke="midnightblue" d="M158.224,-15.5C166.8,-15.5 175.43,-15.5 183.785,-15.5"/>
<polygon fill="midnightblue" stroke="midnightblue" points="158.202,-12.0001 148.202,-15.5 158.202,-19.0001 158.202,-12.0001"/>
</g>
<!-- Node3 -->
<g id="node3" class="node"><title>Node3</title>
<g id="a_node3"><a xlink:href="classRandAnything_3_01std_1_1string_01_4.html#a751699899de4d1ac733ef994564c9c95" target="_top" xlink:title="generate a random std::string in a range of lengths from a chosen alphabet ">
<polygon fill="white" stroke="black" points="354,-0.5 354,-30.5 461,-30.5 461,-0.5 354,-0.5"/>
<text text-anchor="start" x="362" y="-18.5" font-family="Helvetica,sans-Serif" font-size="10.00">RandAnything&lt; std::</text>
<text text-anchor="middle" x="407.5" y="-7.5" font-family="Helvetica,sans-Serif" font-size="10.00">string &gt;::operator()</text>
</a>
</g>
</g>
<!-- Node2&#45;&gt;Node3 -->
<g id="edge2" class="edge"><title>Node2&#45;&gt;Node3</title>
<path fill="none" stroke="midnightblue" d="M328.69,-15.5C337.137,-15.5 345.593,-15.5 353.654,-15.5"/>
<polygon fill="midnightblue" stroke="midnightblue" points="328.419,-12.0001 318.419,-15.5 328.419,-19.0001 328.419,-12.0001"/>
</g>
<!-- Node4 -->
<g id="node4" class="node"><title>Node4</title>
<g id="a_node4"><a xlink:href="classRandAnything_3_01std_1_1string_01_4.html#ae35ce7020cda4ea628336a9e36b69223" target="_top" xlink:title="generate a random std::string of a specific length from a chosen alphabet ">
<polygon fill="white" stroke="black" points="497,-0.5 497,-30.5 604,-30.5 604,-0.5 497,-0.5"/>
<text text-anchor="start" x="505" y="-18.5" font-family="Helvetica,sans-Serif" font-size="10.00">RandAnything&lt; std::</text>
<text text-anchor="middle" x="550.5" y="-7.5" font-family="Helvetica,sans-Serif" font-size="10.00">string &gt;::operator()</text>
</a>
</g>
</g>
<!-- Node3&#45;&gt;Node4 -->
<g id="edge3" class="edge"><title>Node3&#45;&gt;Node4</title>
<path fill="none" stroke="midnightblue" d="M471.05,-15.5C479.7,-15.5 488.51,-15.5 496.953,-15.5"/>
<polygon fill="midnightblue" stroke="midnightblue" points="471.003,-12.0001 461.003,-15.5 471.003,-19.0001 471.003,-12.0001"/>
</g>
</g>
</svg>
